<svg width="14" height="14" viewBox="0 0 14 14" fill="none" xmlns="http://www.w3.org/2000/svg">
<path d="M10.392 0.263999C8.888 0.263999 7.544 1.048 7.08 2.824C7.064 2.872 7.048 2.936 7 2.936C6.952 2.936 6.936 2.872 6.92 2.824C6.44 1.048 5.112 0.263999 3.608 0.263999C1.784 0.263999 0.264 1.944 0.264 4.12C0.264 6.472 2.168 8.184 3.368 9.336C4.824 10.728 6.376 12.632 6.968 13.592C6.984 13.624 7.016 13.624 7.032 13.592C7.624 12.632 9.176 10.728 10.632 9.336C11.832 8.184 13.736 6.488 13.736 4.12C13.736 1.944 12.216 0.263999 10.392 0.263999Z" fill="white"/>
</svg>
